# xmcd
#
# Track frame offsets:
# 150
# 9898
# 28763
# 40977
# 51901
# 70231
# 82080
# 94809
# 109723
# 126615
# 143173
# 153007
# 162825
# 174022
#
# Disc length: 2481 seconds
#
#
# Revision: 0
# Processed by: cddbd v1.5.1PL2 Copyright (c) Steve Scherf et al.
# Submitted via: FreeRIP 2.944 
#
DISCID=b009af0e
DTITLE=Diversos - O Sol
DYEAR=1900
DGENRE=
TTITLE0=O Sol
TTITLE1=Love Is a many splendored thing
TTITLE2=Yesterday
TTITLE3=Moonligh Serenade
TTITLE4=Unchained Melody
TTITLE5=The Shodow of Your Smile
TTITLE6=Il Mondo
TTITLE7=Somewhere in Time
TTITLE8=Can´t help fall in love
TTITLE9=Aquarela do Brasil
TTITLE10=Ave Maria
TTITLE11=Amo em Silêncio
TTITLE12=Over the raibon
TTITLE13=Como é grande o meu amor por você
EXTD=
EXTT0=
EXTT1=
EXTT2=
EXTT3=
EXTT4=
EXTT5=
EXTT6=
EXTT7=
EXTT8=
EXTT9=
EXTT10=
EXTT11=
EXTT12=
EXTT13=
PLAYORDER=
